PathFileType	4	(X/Y/Z)	C:/Users/opensim2020/Desktop/walking_exp_matlab/subject06_walking18_straight_01.trc																																																																																																																																											
DataRate	CameraRate	NumFrames	NumMarkers	Units	OrigDataRate	OrigDataStartFrame	OrigNumFrames																																																																																																																																							
100	100	9	47	mm	100	1265	396																																																																																																																																							
Frame#	Time	LFHD			RFHD			LBHD			RBHD			C7			T10			CLAV			STRN			RBAK			LSHO			LUPA			LELB			LFRM			LWRA			LWRB			LFIN			RSHO			RUPA			RELB			RFRM			RWRA			RWRB			RFIN			LASI			RASI			LPSI			RPSI			LTHI			LKNE			LTIB			LANK			LHEE			LTOE			RTHI			RKNE			RTIB			RANK			RHEE			RTOE			*39			*40			*41			*42			*43			*44			*45			*46		
		X1	Y1	Z1	X2	Y2	Z2	X3	Y3	Z3	X4	Y4	Z4	X5	Y5	Z5	X6	Y6	Z6	X7	Y7	Z7	X8	Y8	Z8	X9	Y9	Z9	X10	Y10	Z10	X11	Y11	Z11	X12	Y12	Z12	X13	Y13	Z13	X14	Y14	Z14	X15	Y15	Z15	X16	Y16	Z16	X17	Y17	Z17	X18	Y18	Z18	X19	Y19	Z19	X20	Y20	Z20	X21	Y21	Z21	X22	Y22	Z22	X23	Y23	Z23	X24	Y24	Z24	X25	Y25	Z25	X26	Y26	Z26	X27	Y27	Z27	X28	Y28	Z28	X29	Y29	Z29	X30	Y30	Z30	X31	Y31	Z31	X32	Y32	Z32	X33	Y33	Z33	X34	Y34	Z34	X35	Y35	Z35	X36	Y36	Z36	X37	Y37	Z37	X38	Y38	Z38	X39	Y39	Z39	X40	Y40	Z40	X41	Y41	Z41	X42	Y42	Z42	X43	Y43	Z43	X44	Y44	Z44	X45	Y45	Z45	X46	Y46	Z46	X47	Y47	Z47
																																																																																																																																														
248	2.47	585.42523	1668.02979	1309.32581	586.72485	1658.51892	1440.14648	451.14633	1616.87988	1312.09094	454.05759	1612.70544	1441.69324	446.74521	1460.19897	1371.57617	402.88028	1132.16492	1389.48535	555.19012	1381.77869	1371.54504	591.46094	1205.16565	1367.67297	370.98547	1293.68945	1457.3645	501.1142	1412.38965	1211.22742	518.53992	1213.04895	1131.58606	534.51215	1102.13049	1114.50806	599.50525	965.72632	1096.77258	681.44635	871.63831	1149.27075	632.14526	850.93365	1102.84863	694.63147	785.96436	1109.03516	515.26001	1417.55298	1532.31592	480.60236	1219.41394	1622.15088	489.27444	1097.46985	1633.10815	501.15359	977.86884	1651.36902	552.0105	834.46033	1620.20447	500.83606	840.052	1662.85706	532.6095	761.23334	1664.32104	574.37415	966.04883	1278.27319	582.13721	979.26123	1499.97363	417.77588	997.68433	1312.34143	428.12976	1000.06219	1479.73499	485.94394	652.99829	1239.93225	471.19687	489.47205	1265.37402	412.69516	238.43683	1289.58496	400.47891	69.35315	1345.78784	363.11801	58.42395	1394.97351	545.36926	38.55934	1336.73608	586.21838	650.02679	1570.05518	624.11871	528.89734	1548.53564	581.19714	269.83795	1555.70752	565.65186	82.65565	1521.38416	527.21356	56.08231	1476.0177	713.73291	46.86113	1525.58105	486.76172	1709.34448	1369.4126	NaN	NaN	NaN	NaN	NaN	NaN	NaN	NaN	NaN	NaN	NaN	NaN	NaN	NaN	NaN	NaN	NaN	NaN	NaN	NaN	NaN
249	2.48	590.90021	1667.62537	1309.70764	592.96985	1658.53125	1441.37488	456.47852	1616.52319	1312.03174	459.2677	1612.25513	1441.62573	451.99484	1459.745	1371.3595	408.27213	1131.69763	1389.31946	560.5213	1381.40002	1371.62122	596.99951	1204.8479	1367.73682	376.08664	1293.16138	1457.03918	506.66803	1412.0155	1211.17346	524.82788	1212.82556	1131.42297	541.49469	1101.91016	1114.33752	607.87067	966.26532	1097.31116	691.57043	873.66858	1149.73743	642.3429	851.90948	1103.83948	705.77069	787.8559	1110.02551	520.09509	1417.16162	1532.25635	485.20279	1219.06873	1622.04993	493.84091	1097.17273	1633.1095	505.49332	977.51691	1651.43262	556.3847	834.10443	1620.39746	505.09161	839.6955	1662.98718	536.94434	760.90857	1664.58337	579.67474	965.67554	1278.11316	587.67828	978.98956	1499.60803	423.20914	997.21283	1312.0697	433.72913	999.62421	1479.42297	490.88129	652.48346	1239.8457	475.31036	489.05597	1265.43726	414.8587	238.44479	1289.60999	400.8111	69.57742	1345.93933	363.56119	58.79226	1394.96875	545.5835	38.49003	1336.87268	591.36041	649.6557	1570.55481	630.10571	528.63824	1548.57202	596.09692	268.76746	1555.62207	586.68219	81.27293	1521.30225	548.11078	54.51977	1476.73828	735.21173	47.44041	1522.19995	491.98056	1708.94531	1369.46667	NaN	NaN	NaN	NaN	NaN	NaN	NaN	NaN	NaN	NaN	NaN	NaN	NaN	NaN	NaN	NaN	NaN	NaN	NaN	NaN	NaN
250	2.49	596.15216	1667.29102	1309.7699	596.93628	1657.65747	1440.5946	461.84509	1616.14001	1311.95911	464.36411	1611.78442	1441.56641	457.20764	1459.30188	1371.26917	413.78696	1131.1189	1389.13318	565.84216	1381.03564	1371.69836	602.41284	1204.49146	1367.86719	381.3139	1292.53345	1456.65002	512.25604	1411.55212	1211.151	531.12421	1212.51221	1131.2926	548.33081	1101.64709	1114.31445	616.55505	966.72803	1097.46033	701.51807	875.66193	1150.37097	652.19727	852.74457	1104.98657	716.64447	789.70856	1111.3158	524.9173	1416.75281	1532.30408	489.74487	1218.63037	1622.00024	498.13745	1096.823	1633.26184	509.90482	977.12939	1651.54529	560.81598	833.66949	1620.71045	509.45993	839.32806	1663.15479	541.14777	760.41821	1664.63806	585.03662	965.24298	1277.82263	593.237	978.63354	1499.27661	428.62769	996.69067	1311.80286	439.36548	999.10327	1479.15991	495.83957	652.05243	1239.84705	479.58527	488.6535	1265.45544	416.84726	238.61328	1289.5592	401.10397	69.83911	1345.95923	363.5087	59.39675	1394.96936	545.72296	38.43807	1337.00818	596.67279	649.18427	1571.15088	636.01923	528.27997	1548.47351	610.88165	267.95004	1555.69116	606.89276	80.37239	1521.31189	567.58691	53.86787	1477.94421	755.90564	48.11682	1518.85657	497.21942	1708.51355	1369.52039	NaN	NaN	NaN	NaN	NaN	NaN	NaN	NaN	NaN	NaN	NaN	NaN	NaN	NaN	NaN	NaN	NaN	NaN	NaN	NaN	NaN
251	2.5	601.61139	1666.86377	1310.29614	603.14453	1657.67407	1441.91821	467.16626	1615.73743	1312.00269	469.42761	1611.33215	1441.5813	462.60114	1458.84558	1371.08105	419.23895	1130.58386	1389.03882	571.16809	1380.62744	1371.89063	607.86157	1204.11316	1367.98523	386.50793	1291.93652	1456.35291	517.86755	1411.08594	1211.18567	537.46924	1212.05273	1131.44006	555.08813	1101.23083	1114.37891	624.62799	967.0047	1098.2876	711.23993	877.56024	1151.14441	661.95593	853.57288	1106.28821	727.23712	791.41095	1112.72571	529.77917	1416.25415	1532.41016	494.24261	1218.16187	1622.01147	502.6723	1096.33569	1633.43201	514.27423	976.68719	1651.70361	565.30963	833.20923	1621.00427	513.85516	838.83984	1663.30798	545.6474	760.0379	1665.03796	590.6098	964.84979	1277.57288	598.8999	978.24432	1499.01343	434.15076	996.18585	1311.61719	444.92419	998.54401	1479.01489	501.10837	651.58081	1239.77856	483.73718	488.35168	1265.375	418.75613	238.72112	1289.42114	401.37543	70.13998	1345.89221	363.69858	59.76411	1394.85278	545.89551	38.39824	1337.05762	602.30383	648.75592	1571.875	642.47894	528.09546	1548.36584	624.95941	267.46548	1555.51074	626.06671	80.00095	1521.20276	586.96674	53.06004	1478.1488	775.31836	48.71645	1515.56262	502.42252	1708.10559	1369.60779	NaN	NaN	NaN	NaN	NaN	NaN	NaN	NaN	NaN	NaN	NaN	NaN	NaN	NaN	NaN	NaN	NaN	NaN	NaN	NaN	NaN
252	2.51	606.95404	1666.48926	1310.62671	608.27246	1657.27258	1442.22815	472.57092	1615.29871	1312.05188	474.60156	1610.8678	1441.6106	467.88251	1458.36548	1371.05505	424.76398	1130.01892	1388.96301	576.48694	1380.1427	1372.07483	613.29181	1203.71509	1368.13562	391.68729	1291.29822	1456.06079	523.55841	1410.55725	1211.26001	543.6792	1211.68506	1131.4054	561.78894	1100.75574	1114.54626	632.93372	967.2644	1098.84973	720.82062	879.37311	1152.10706	671.60962	854.36346	1107.755	737.5799	793.02655	1114.3252	534.68048	1415.70691	1532.55225	498.7663	1217.65735	1622.08728	507.16028	1095.7854	1633.52356	518.7124	976.15662	1651.91809	569.89539	832.73505	1621.38599	518.32629	838.35382	1663.51648	550.03741	759.49786	1665.31384	596.3764	964.51172	1277.49597	604.56982	977.86798	1498.72998	439.69839	995.70624	1311.49292	450.59552	998.04254	1478.95557	505.92993	651.16772	1239.72363	487.84982	488.05542	1265.39673	420.64297	238.92981	1289.27686	401.62103	70.44796	1345.77148	363.84238	60.19198	1394.62402	545.93274	38.25386	1337.20068	608.29791	648.3479	1572.58545	649.24481	528.07697	1548.16699	638.81927	267.35168	1555.61121	644.32275	80.02041	1521.09106	604.98883	52.93903	1478.77576	794.22107	49.66081	1513.05518	507.68054	1707.66614	1369.72302	NaN	NaN	NaN	NaN	NaN	NaN	NaN	NaN	NaN	NaN	NaN	NaN	NaN	NaN	NaN	NaN	NaN	NaN	NaN	NaN	NaN
253	2.52	612.2373	1666.11865	1310.78442	613.41473	1656.86816	1442.62073	477.97729	1614.89331	1312.19885	479.76947	1610.46399	1441.78113	473.20575	1457.97229	1371.17517	430.44708	1129.45569	1388.92249	581.86725	1379.72864	1372.34766	618.73816	1203.28845	1368.27869	396.94614	1290.62671	1455.87097	529.26691	1410.07324	1211.4021	549.8797	1211.19287	1131.67847	568.40607	1100.27832	1114.87866	641.03101	967.58215	1099.62439	730.30219	881.14362	1153.0415	681.45972	854.95862	1109.24988	747.71143	794.61047	1116.05249	539.60901	1415.16833	1532.78857	503.29803	1217.10889	1622.16797	511.651	1095.25757	1633.71155	523.15436	975.65582	1652.24084	574.54926	832.24957	1621.81372	522.83447	837.87891	1663.77832	555.01495	759.2464	1666.03992	601.526	963.87122	1277.12903	610.23724	977.49792	1498.58508	445.37201	995.18488	1311.5116	456.42468	997.59296	1478.97229	510.84003	650.78546	1239.71704	492.04034	487.78577	1265.40027	422.70953	239.0887	1289.05444	401.95685	70.77722	1345.59241	363.98419	60.68126	1394.43335	545.99335	38.22917	1337.25208	614.75427	648.02863	1573.24915	655.97192	527.97089	1547.58948	651.86932	267.50232	1555.71948	661.59552	80.36177	1520.98767	622.3161	53.06787	1478.67236	812.1322	50.90582	1510.93872	512.89539	1707.26892	1369.97046	NaN	NaN	NaN	NaN	NaN	NaN	NaN	NaN	NaN	NaN	NaN	NaN	NaN	NaN	NaN	NaN	NaN	NaN	NaN	NaN	NaN
254	2.53	617.66315	1665.70862	1311.23633	618.58398	1656.45129	1443.07251	483.39929	1614.3988	1312.40491	484.81693	1609.97192	1442.01001	478.62134	1457.52625	1371.27612	436.02725	1128.93481	1389.02551	587.22205	1379.27417	1372.65186	624.15912	1202.8252	1368.36426	402.25378	1289.94897	1455.68384	535.0246	1409.56348	1211.60229	556.13971	1210.698	1132.02234	575.21216	1099.82788	1115.1731	648.89038	967.73645	1100.79736	739.46851	882.89014	1154.34741	690.21002	855.82867	1111.07043	757.61926	796.14764	1117.94958	544.61053	1414.58362	1533.05725	507.87589	1216.54907	1622.28259	516.27502	1094.70764	1633.97192	527.76593	975.06714	1652.44568	579.2948	831.72498	1622.27954	527.42963	837.32617	1664.12415	559.24634	758.55103	1666.2085	607.12646	963.34241	1277.06421	615.98138	977.06372	1498.54578	450.98828	994.76062	1311.68848	462.17657	997.12518	1479.10046	515.49298	650.453	1239.70898	496.14899	487.46539	1265.33533	424.74219	239.30771	1288.9209	402.19116	71.15382	1345.43799	364.05502	61.17641	1394.21997	546.05347	38.22129	1337.24487	621.69067	647.9314	1573.89404	662.90002	528.11969	1546.81567	663.74103	267.73593	1555.66772	678.11273	80.9021	1520.77808	639.20032	53.17272	1478.54602	829.45605	52.34985	1509.53174	518.18829	1706.78723	1370.20325	NaN	NaN	NaN	NaN	NaN	NaN	NaN	NaN	NaN	NaN	NaN	NaN	NaN	NaN	NaN	NaN	NaN	NaN	NaN	NaN	NaN
255	2.54	623.13483	1665.26514	1311.92969	623.78705	1655.97449	1443.52222	488.75528	1613.94153	1312.66248	490.11475	1609.46704	1442.23499	484.0694	1457.01392	1371.41736	441.63062	1128.36621	1389.23047	592.65912	1378.776	1373.00037	629.74683	1202.33215	1368.62781	407.70862	1289.28821	1455.51831	540.73053	1409.05273	1211.89526	562.33685	1210.11865	1132.69775	581.75757	1099.29639	1115.77856	656.69708	967.80597	1101.87561	748.24908	884.56763	1155.94568	699.80768	856.52698	1112.67847	767.42334	797.68921	1120.02063	549.58319	1413.9834	1533.34473	512.48151	1215.97083	1622.43799	520.82581	1094.12537	1634.22937	532.37891	974.54163	1652.84363	584.10596	831.22644	1622.90137	532.1521	836.84424	1664.58252	564.02588	758.04895	1666.74622	612.71729	962.81555	1277.13684	621.80731	976.56573	1498.59131	456.71149	994.32971	1311.90344	468.14063	996.59351	1479.29578	520.17444	650.01843	1239.72815	500.27567	487.05313	1265.38892	426.6875	239.41052	1288.87036	402.47397	71.5156	1345.31213	364.32907	61.67677	1394.07532	546.16034	38.22579	1337.18298	628.86066	648.09076	1574.52405	669.82764	528.66718	1546.05139	674.84607	268.01138	1555.50476	693.84064	81.50154	1520.50244	655.46381	53.5402	1478.15784	845.81836	53.71693	1508.48547	523.45459	1706.2981	1370.51257	NaN	NaN	NaN	NaN	NaN	NaN	NaN	NaN	NaN	NaN	NaN	NaN	NaN	NaN	NaN	NaN	NaN	NaN	NaN	NaN	NaN
256	2.55	628.47528	1664.84937	1312.2594	629.00885	1655.51807	1444.09583	494.23642	1613.43066	1312.98132	495.29947	1608.901	1442.64136	489.42377	1456.47668	1371.71997	447.47675	1127.77527	1389.50244	598.16003	1378.28333	1373.45728	635.35162	1201.85791	1368.99792	413.12646	1288.51929	1455.45764	546.47168	1408.52039	1212.24109	568.3927	1209.61511	1133.0824	588.16217	1098.77881	1116.50989	664.48822	968.16833	1103.19592	756.97321	886.13654	1157.57227	708.79254	857.42078	1114.64429	776.98474	799.26483	1122.26648	554.6601	1413.40649	1533.7002	517.22552	1215.37634	1622.70239	525.67621	1093.57715	1634.59265	537.07855	973.98853	1653.23303	588.97571	830.65747	1623.4978	536.79169	836.2005	1664.86719	569.20917	757.72003	1667.64087	618.31934	962.25861	1277.23059	627.76965	976.01825	1498.64648	462.49448	993.87811	1312.2384	474.07764	996.1051	1479.58459	524.70416	649.6037	1239.7865	504.38181	486.65915	1265.47534	428.77414	239.60422	1288.89185	402.79092	71.89728	1345.2439	364.51279	62.22028	1393.99438	546.25586	38.20734	1337.19055	635.96948	647.9057	1574.50171	676.56506	529.26031	1545.35242	685.31366	268.22641	1555.26978	708.7757	82.16957	1520.13171	671.09912	53.89872	1477.4325	861.50751	55.59295	1508.18713	528.73889	1705.77209	1370.93396	NaN	NaN	NaN	NaN	NaN	NaN	NaN	NaN	NaN	NaN	NaN	NaN	NaN	NaN	NaN	NaN	NaN	NaN	NaN	NaN	NaN
